<svg width="20" height="20" fill="none" xmlns="http://www.w3.org/2000/svg"><path d="M18.317 6.566c-.04-.885-.182-1.494-.387-2.022a4.068 4.068 0 0 0-.964-1.478 4.102 4.102 0 0 0-1.475-.96c-.53-.206-1.136-.349-2.022-.388-.892-.042-1.175-.052-3.438-.052s-2.546.01-3.435.049c-.886.039-1.495.182-2.022.387a4.066 4.066 0 0 0-1.478.964 4.103 4.103 0 0 0-.96 1.475c-.206.53-.349 1.136-.388 2.022-.042.892-.052 1.175-.052 3.438s.01 2.546.049 3.435c.039.886.182 1.494.387 2.022.212.56.54 1.061.964 1.478.417.423.921.752 1.475.96.53.206 1.136.349 2.022.388.888.039 1.172.049 3.435.049 2.262 0 2.546-.01 3.434-.05.886-.038 1.495-.181 2.022-.387a4.263 4.263 0 0 0 2.439-2.438c.205-.53.348-1.136.387-2.022.04-.889.05-1.172.05-3.435s-.004-2.546-.043-3.435Zm-1.501 6.805c-.036.814-.173 1.253-.287 1.546a2.765 2.765 0 0 1-1.582 1.583c-.293.114-.736.25-1.546.286-.88.04-1.143.049-3.367.049s-2.49-.01-3.367-.049c-.814-.036-1.253-.172-1.546-.286a2.566 2.566 0 0 1-.957-.622 2.592 2.592 0 0 1-.622-.957c-.114-.293-.25-.736-.287-1.547-.039-.879-.048-1.143-.048-3.367 0-2.223.01-2.49.048-3.366.036-.814.173-1.254.287-1.547.133-.361.345-.69.625-.957.27-.277.596-.488.957-.622.293-.114.736-.25 1.547-.286.879-.04 1.143-.049 3.366-.049 2.227 0 2.491.01 3.367.049.814.036 1.253.172 1.546.286.362.134.69.345.958.622.276.27.488.596.621.957.114.293.251.736.287 1.547.039.88.049 1.143.049 3.367 0 2.223-.01 2.484-.049 3.363Z" fill="#fff"/><path d="M10.03 5.72a4.283 4.283 0 0 0 0 8.562 4.282 4.282 0 0 0 0-8.562Zm0 7.058a2.778 2.778 0 1 1 .002-5.555 2.778 2.778 0 0 1-.001 5.555ZM15.481 5.55a1 1 0 1 1-2 0 1 1 0 0 1 2 0Z" fill="#fff"/></svg>