<svg width="20" height="20" fill="none" xmlns="http://www.w3.org/2000/svg"><path fill-rule="evenodd" clip-rule="evenodd" d="M.833 2.916c0-1.15.933-2.083 2.084-2.083h14.166c1.15 0 2.084.933 2.084 2.083v4.167c0 1.15-.933 2.083-2.084 2.083H2.917A2.083 2.083 0 0 1 .833 7.083V2.916ZM2.917 2.5a.417.417 0 0 0-.417.416v4.167c0 .23.187.417.417.417h14.166c.23 0 .417-.187.417-.417V2.916a.417.417 0 0 0-.417-.416H2.917ZM.833 12.916c0-1.15.933-2.083 2.084-2.083h14.166c1.15 0 2.084.933 2.084 2.083v4.167c0 1.15-.933 2.083-2.084 2.083H2.917a2.083 2.083 0 0 1-2.084-2.083v-4.167Zm2.084-.416a.417.417 0 0 0-.417.416v4.167c0 .23.187.417.417.417h14.166c.23 0 .417-.187.417-.417v-4.167a.417.417 0 0 0-.417-.416H2.917Z" fill="#424551"/></svg>